<?xml version="1.0" encoding="UTF-8"?>
<svg version="1.1" xmlns="http://www.w3.org/2000/svg" width="48" height="48">
<path d="M0 0 C0.75990234 -0.02900391 1.51980469 -0.05800781 2.30273438 -0.08789062 C6.21265021 -0.13205127 8.24726396 0.0531672 11.69140625 2.08203125 C13.77823415 4.41388786 14.37244542 5.24329472 14.3125 8.3125 C14.10503893 11.60136808 13.85276835 12.14264087 11.4375 14.625 C10.53 15.181875 9.6225 15.73875 8.6875 16.3125 C7.34725653 17.30321954 6.01263433 18.30166035 4.6875 19.3125 C5.38617188 19.51746094 6.08484375 19.72242187 6.8046875 19.93359375 C7.71476562 20.20300781 8.62484375 20.47242187 9.5625 20.75 C10.46742187 21.01683594 11.37234375 21.28367187 12.3046875 21.55859375 C14.6875 22.3125 14.6875 22.3125 16.6875 23.3125 C16.6875 24.6325 16.6875 25.9525 16.6875 27.3125 C10.48888093 27.98262098 5.33126389 25.56197173 -0.3125 23.3125 C0.0175 25.2925 0.3475 27.2725 0.6875 29.3125 C-0.9625 29.6425 -2.6125 29.9725 -4.3125 30.3125 C-4.87573179 23.62412247 -5.3125 17.02633251 -5.3125 10.3125 C-5.59770405 8.63692621 -5.91205696 6.96432755 -6.3125 5.3125 C-7.6325 5.3125 -8.9525 5.3125 -10.3125 5.3125 C-10.3125 3.9925 -10.3125 2.6725 -10.3125 1.3125 C-7.07124994 -0.30812503 -3.55800138 0.04458648 0 0 Z M-1.3125 4.3125 C-1.3125 7.9425 -1.3125 11.5725 -1.3125 15.3125 C2.88992067 14.26189483 5.31689288 12.99366475 8.6875 10.3125 C8.6875 8.9925 8.6875 7.6725 8.6875 6.3125 C5.0433226 3.8830484 2.97508728 4.15070425 -1.3125 4.3125 Z " fill="#65E294" transform="translate(10.3125,8.6875)"/>
<path d="M0 0 C0 1.65 0 3.3 0 5 C-5.94 5.495 -5.94 5.495 -12 6 C-12.33 7.32 -12.66 8.64 -13 10 C-12.16855469 10.32613281 -11.33710937 10.65226562 -10.48046875 10.98828125 C-9.39378906 11.42527344 -8.30710937 11.86226562 -7.1875 12.3125 C-6.10855469 12.74175781 -5.02960937 13.17101563 -3.91796875 13.61328125 C-1.28411022 14.86498109 0.25986903 15.70160175 2 18 C2.5 20.875 2.5 20.875 2 24 C-0.172635 26.57285724 -1.97993838 28.48996919 -5 30 C-6.70702735 30.06996014 -8.41668003 30.08440154 -10.125 30.0625 C-11.03507812 30.05347656 -11.94515625 30.04445313 -12.8828125 30.03515625 C-13.93082031 30.01775391 -13.93082031 30.01775391 -15 30 C-16.125 26.25 -16.125 26.25 -15 24 C-14.37351562 24.01160156 -13.74703125 24.02320312 -13.1015625 24.03515625 C-11.87566406 24.04869141 -11.87566406 24.04869141 -10.625 24.0625 C-9.40683594 24.07990234 -9.40683594 24.07990234 -8.1640625 24.09765625 C-5.95062858 24.14466334 -5.95062858 24.14466334 -4 23 C-3.34786708 20.97536745 -3.34786708 20.97536745 -3 19 C-3.66386719 18.81824219 -4.32773437 18.63648437 -5.01171875 18.44921875 C-14.64259928 15.70758123 -14.64259928 15.70758123 -18 13 C-19 11.125 -19 11.125 -19 9 C-17.37166507 4.92916267 -14.9108107 2.77297509 -11.05078125 0.71484375 C-7.4151403 -0.55243681 -3.79326132 -0.30965398 0 0 Z " fill="#6EE599" transform="translate(45,9)"/>
<path d="M0 0 C1.45903258 0.30921884 2.91720722 0.62248799 4.375 0.9375 C5.18710937 1.11152344 5.99921875 1.28554688 6.8359375 1.46484375 C9 2 9 2 11 3 C11 4.32 11 5.64 11 7 C5.57960425 7.40652968 1.92984325 6.03993514 -3 4 C-2.34 3.67 -1.68 3.34 -1 3 C-0.67 2.01 -0.34 1.02 0 0 Z " fill="#69E595" transform="translate(16,29)"/>
<path d="M0 0 C0.33 0.99 0.66 1.98 1 3 C3.09719872 4.02281518 3.09719872 4.02281518 5.5625 4.6875 C6.38878906 4.93886719 7.21507812 5.19023437 8.06640625 5.44921875 C9.02353516 5.72185547 9.02353516 5.72185547 10 6 C10 6.99 10 7.98 10 9 C6.60729875 10.09763864 5.16152318 10.05901808 1.75 8.8125 C-1 7 -1 7 -2 5 C-2 3 -2 3 0 0 Z " fill="#65E48F" transform="translate(29,16)"/>
<path d="M0 0 C-0.99 0.495 -0.99 0.495 -2 1 C-1.34 1.33 -0.68 1.66 0 2 C0 4.31 0 6.62 0 9 C-0.33 9 -0.66 9 -1 9 C-1.33 7.35 -1.66 5.7 -2 4 C-3.32 4 -4.64 4 -6 4 C-6 2.68 -6 1.36 -6 0 C-3.50907189 -1.24546405 -2.58919267 -0.7767578 0 0 Z " fill="#87EAA8" transform="translate(6,10)"/>
<path d="M0 0 C4.455 0.99 4.455 0.99 9 2 C9 2.33 9 2.66 9 3 C6.69 2.67 4.38 2.34 2 2 C2.33 2.99 2.66 3.98 3 5 C0.03 4.505 0.03 4.505 -3 4 C-2.34 3.67 -1.68 3.34 -1 3 C-0.67 2.01 -0.34 1.02 0 0 Z " fill="#7FE7A3" transform="translate(16,29)"/>
<path d="M0 0 C1.65 0 3.3 0 5 0 C5.33 1.32 5.66 2.64 6 4 C3.69 3.34 1.38 2.68 -1 2 C-0.67 1.34 -0.34 0.68 0 0 Z " fill="#58D583" transform="translate(39,10)"/>
</svg>
